# xmcd CD database file
#
# Track frame offsets:
#	150
#	12920
#	23305
#	35115
#	45780
#	59032
#	77137
#	89540
#	102815
#	116287
#	125817
#	134947
#	148045
#	161147
#	176437
#	191552
#	205335
#	218322
#	231255
#	246365
#	262387
#	275687
#	289562
#	307857
#	321015
#
# Disc length: 4467 seconds
#
# Revision: 1
# Processed by: cddbd v1.5.1PL0 Copyright (c) Steve Scherf et al.
# Submitted via: CDex 1.51
#
DISCID=70117119
DTITLE=Various Artist - American Music In The Beginning
DYEAR=1994
DGENRE=Jazz
TTITLE0=Yankee Doodle
TTITLE1=Marching Through Georgia
TTITLE2=The Unclouded Day
TTITLE3=Christ Arose
TTITLE4=Swing Low, Sweet Chariot
TTITLE5=Virginia Minstrels
TTITLE6=My Old Kentucky Home
TTITLE7=Home, Sweet Home
TTITLE8=Silver Threads Among The Gold
TTITLE9=Heinie
TTITLE10=Laughing Song
TTITLE11=The Spaniard That Blighted My Life
TTITLE12=Nobody
TTITLE13=Crazy Blues
TTITLE14=(I Love You Just The Same) Sweet Adeline
TTITLE15=Let Me Call You Sweetheart (I'm In Love With You)
TTITLE16=Yes! We Have No Bananas
TTITLE17=Hawaiian Rainbow
TTITLE18=Blue Yodel
TTITLE19=Sam, The Old Accordian Man
TTITLE20=Sadie Green, Vamp Of New Orleans
TTITLE21=I Ain't Got Nobody
TTITLE22=Bill
TTITLE23=Ramona
TTITLE24=How Come You Do Me, Like You Do?
EXTD=YEAR: 1994
EXTT0=
EXTT1=
EXTT2=
EXTT3=
EXTT4=
EXTT5=
EXTT6=
EXTT7=
EXTT8=
EXTT9=
EXTT10=
EXTT11=
EXTT12=
EXTT13=
EXTT14=
EXTT15=
EXTT16=
EXTT17=
EXTT18=
EXTT19=
EXTT20=
EXTT21=
EXTT22=
EXTT23=
EXTT24=
PLAYORDER=
